REM DIRINDEX 1\6,1\2\7,1\2\8,1\2\9,1\3\10,1\3\11,1\4\12,1\4\13,1\4\14,1\5\15,1\5\16,1\5\17
REM DIRNAME cjc040,folder01,folder02,folder03,folder04,folder05,folder06,folder07,folder08,folder09,folder10,folder11,folder12,folder13,folder14,folder15,folder16
TITLE ""
FILE "P2Q_t_0108-0125.mp3" MP3
  TRACK 01 AUDIO
    TITLE "10:cjc040_1864"
    INDEX 01 00:00:00
  TRACK 02 AUDIO
    TITLE "0:"
    INDEX 01 00:01:17
  TRACK 03 AUDIO
    TITLE "11:cjc040_1865"
    INDEX 01 00:02:02
  TRACK 04 AUDIO
    TITLE "0:"
    INDEX 01 00:03:17
  TRACK 05 AUDIO
    TITLE "10:cjc040_1866"
    INDEX 01 00:03:74
  TRACK 06 AUDIO
    TITLE "0:"
    INDEX 01 00:05:12
  TRACK 07 AUDIO
    TITLE "11:cjc040_1867"
    INDEX 01 00:05:67
  TRACK 08 AUDIO
    TITLE "0:"
    INDEX 01 00:09:24
  TRACK 09 AUDIO
    TITLE "10:cjc040_1868"
    INDEX 01 00:10:04
  TRACK 10 AUDIO
    TITLE "0:"
    INDEX 01 00:11:05
  TRACK 11 AUDIO
    TITLE "11:cjc040_1869"
    INDEX 01 00:11:64
  TRACK 12 AUDIO
    TITLE "0:"
    INDEX 01 00:13:14
  TRACK 13 AUDIO
    TITLE "10:cjc040_1870"
    INDEX 01 00:13:67
  TRACK 14 AUDIO
    TITLE "0:"
    INDEX 01 00:15:05
  TRACK 15 AUDIO
    TITLE "11:cjc040_1871"
    INDEX 01 00:15:60
  TRACK 16 AUDIO
    TITLE "0:"
    INDEX 01 00:18:62
  TRACK 17 AUDIO
    TITLE "10:cjc040_1872"
    INDEX 01 00:19:42
  TRACK 18 AUDIO
    TITLE "0:"
    INDEX 01 00:20:67
  TRACK 19 AUDIO
    TITLE "11:cjc040_1873"
    INDEX 01 00:21:47
  TRACK 20 AUDIO
    TITLE "0:"
    INDEX 01 00:22:62
  TRACK 21 AUDIO
    TITLE "10:cjc040_1874"
    INDEX 01 00:23:46
  TRACK 22 AUDIO
    TITLE "0:"
    INDEX 01 00:24:51
  TRACK 23 AUDIO
    TITLE "11:cjc040_1875"
    INDEX 01 00:25:29
  TRACK 24 AUDIO
    TITLE "0:"
    INDEX 01 00:28:51
  TRACK 25 AUDIO
    TITLE "10:cjc040_1876"
    INDEX 01 00:29:44
  TRACK 26 AUDIO
    TITLE "0:"
    INDEX 01 00:30:44
  TRACK 27 AUDIO
    TITLE "11:cjc040_1877"
    INDEX 01 00:31:24
  TRACK 28 AUDIO
    TITLE "0:"
    INDEX 01 00:34:53
  TRACK 29 AUDIO
    TITLE "10:cjc040_1878"
    INDEX 01 00:35:33
  TRACK 30 AUDIO
    TITLE "0:"
    INDEX 01 00:36:54
  TRACK 31 AUDIO
    TITLE "11:cjc040_1879"
    INDEX 01 00:37:34
  TRACK 32 AUDIO
    TITLE "0:"
    INDEX 01 00:40:50
  TRACK 33 AUDIO
    TITLE "10:cjc040_1880"
    INDEX 01 00:41:30
  TRACK 34 AUDIO
    TITLE "0:"
    INDEX 01 00:42:45
  TRACK 35 AUDIO
    TITLE "11:cjc040_1881"
    INDEX 01 00:43:23
  TRACK 36 AUDIO
    TITLE "0:"
    INDEX 01 00:44:69
  TRACK 37 AUDIO
    TITLE "10:cjc040_1882"
    INDEX 01 00:45:49
  TRACK 38 AUDIO
    TITLE "0:"
    INDEX 01 00:46:72
  TRACK 39 AUDIO
    TITLE "11:cjc040_1883"
    INDEX 01 00:47:52
  TRACK 40 AUDIO
    TITLE "0:"
    INDEX 01 00:50:42
  TRACK 41 AUDIO
    TITLE "10:cjc040_1884"
    INDEX 01 00:51:20
  TRACK 42 AUDIO
    TITLE "0:"
    INDEX 01 00:52:37
  TRACK 43 AUDIO
    TITLE "11:cjc040_1885"
    INDEX 01 00:53:13
  TRACK 44 AUDIO
    TITLE "0:"
    INDEX 01 00:55:65
  TRACK 45 AUDIO
    TITLE "10:cjc040_1886"
    INDEX 01 00:56:47
  TRACK 46 AUDIO
    TITLE "0:"
    INDEX 01 00:57:72
  TRACK 47 AUDIO
    TITLE "11:cjc040_1887"
    INDEX 01 00:58:56
  TRACK 48 AUDIO
    TITLE "0:"
    INDEX 01 01:01:56
  TRACK 49 AUDIO
    TITLE "10:cjc040_1888"
    INDEX 01 01:02:36
  TRACK 50 AUDIO
    TITLE "0:"
    INDEX 01 01:03:55
  TRACK 51 AUDIO
    TITLE "11:cjc040_1889"
    INDEX 01 01:04:41
  TRACK 52 AUDIO
    TITLE "0:"
    INDEX 01 01:09:67
  TRACK 53 AUDIO
    TITLE "10:cjc040_1890"
    INDEX 01 01:10:43
  TRACK 54 AUDIO
    TITLE "0:"
    INDEX 01 01:11:58
  TRACK 55 AUDIO
    TITLE "11:cjc040_1891"
    INDEX 01 01:12:42
  TRACK 56 AUDIO
    TITLE "0:"
    INDEX 01 01:15:17
  TRACK 57 AUDIO
    TITLE "10:cjc040_1892"
    INDEX 01 01:15:72
  TRACK 58 AUDIO
    TITLE "0:"
    INDEX 01 01:17:18
  TRACK 59 AUDIO
    TITLE "11:cjc040_1893"
    INDEX 01 01:17:69
  TRACK 60 AUDIO
    TITLE "0:"
    INDEX 01 01:20:57
  TRACK 61 AUDIO
    TITLE "10:cjc040_1894"
    INDEX 01 01:21:29
  TRACK 62 AUDIO
    TITLE "0:"
    INDEX 01 01:22:42
  TRACK 63 AUDIO
    TITLE "11:cjc040_1895"
    INDEX 01 01:23:18
  TRACK 64 AUDIO
    TITLE "0:"
    INDEX 01 01:26:36
  TRACK 65 AUDIO
    TITLE "10:cjc040_1896"
    INDEX 01 01:27:18
  TRACK 66 AUDIO
    TITLE "0:"
    INDEX 01 01:28:59
  TRACK 67 AUDIO
    TITLE "11:cjc040_1897"
    INDEX 01 01:29:43
  TRACK 68 AUDIO
    TITLE "0:"
    INDEX 01 01:31:04
  TRACK 69 AUDIO
    TITLE "10:cjc040_1898"
    INDEX 01 01:31:61
  TRACK 70 AUDIO
    TITLE "0:"
    INDEX 01 01:32:72
  TRACK 71 AUDIO
    TITLE "11:cjc040_1899"
    INDEX 01 01:33:52
  TRACK 72 AUDIO
    TITLE "0:"
    INDEX 01 01:36:19
